<mxfile host="app.diagrams.net" modified="2023-09-08T12:19:33.729Z" agent="Mozilla/5.0 (Windows NT 10.0; Win64; x64) AppleWebKit/537.36 (KHTML, like Gecko) Chrome/116.0.0.0 Safari/537.36" etag="8S3HX_RfudlbwNKTS7m3" version="21.7.2" type="device">
  <diagram name="Страница — 1" id="S316R1U3v4LXnh3yCkhl">
    <mxGraphModel dx="1050" dy="542" grid="1" gridSize="10" guides="1" tooltips="1" connect="1" arrows="1" fold="1" page="1" pageScale="1" pageWidth="827" pageHeight="1169" background="#000000" math="0" shadow="0">
      <root>
        <mxCell id="0" />
        <mxCell id="1" parent="0" />
        <mxCell id="3xLGq0D5oFHdnfk7SAKi-3" value="" style="edgeStyle=orthogonalEdgeStyle;rounded=0;orthogonalLoop=1;jettySize=auto;html=1;fontFamily=Helvetica;fontSize=12;fontColor=default;" edge="1" parent="1" source="3xLGq0D5oFHdnfk7SAKi-1" target="3xLGq0D5oFHdnfk7SAKi-2">
          <mxGeometry relative="1" as="geometry" />
        </mxCell>
        <mxCell id="3xLGq0D5oFHdnfk7SAKi-4" value="" style="edgeStyle=orthogonalEdgeStyle;rounded=0;orthogonalLoop=1;jettySize=auto;html=1;fontFamily=Helvetica;fontSize=12;fontColor=default;strokeColor=#FFFFFF;" edge="1" parent="1" source="3xLGq0D5oFHdnfk7SAKi-1" target="3xLGq0D5oFHdnfk7SAKi-2">
          <mxGeometry relative="1" as="geometry" />
        </mxCell>
        <mxCell id="3xLGq0D5oFHdnfk7SAKi-1" value="SecondArrayWithIF" style="rounded=1;whiteSpace=wrap;html=1;fillColor=#000000;strokeColor=#FFFFFF;labelBackgroundColor=none;fontColor=#FFFFFF;" vertex="1" parent="1">
          <mxGeometry x="354" y="130" width="120" height="60" as="geometry" />
        </mxCell>
        <mxCell id="3xLGq0D5oFHdnfk7SAKi-6" value="" style="edgeStyle=orthogonalEdgeStyle;shape=connector;rounded=0;orthogonalLoop=1;jettySize=auto;html=1;labelBackgroundColor=default;strokeColor=#FFFFFF;fontFamily=Helvetica;fontSize=12;fontColor=default;endArrow=classic;" edge="1" parent="1" source="3xLGq0D5oFHdnfk7SAKi-2" target="3xLGq0D5oFHdnfk7SAKi-5">
          <mxGeometry relative="1" as="geometry" />
        </mxCell>
        <mxCell id="3xLGq0D5oFHdnfk7SAKi-2" value="string[] array&lt;br&gt;string[] array2&lt;br&gt;int count = 0" style="shape=parallelogram;perimeter=parallelogramPerimeter;whiteSpace=wrap;html=1;fixedSize=1;rounded=1;strokeColor=#FFFFFF;fontFamily=Helvetica;fontSize=12;fontColor=#FFFFFF;fillColor=#000000;" vertex="1" parent="1">
          <mxGeometry x="319" y="220" width="190" height="70" as="geometry" />
        </mxCell>
        <mxCell id="3xLGq0D5oFHdnfk7SAKi-8" value="" style="edgeStyle=orthogonalEdgeStyle;shape=connector;rounded=0;orthogonalLoop=1;jettySize=auto;html=1;labelBackgroundColor=default;strokeColor=#FFFFFF;fontFamily=Helvetica;fontSize=12;fontColor=default;endArrow=classic;" edge="1" parent="1" source="3xLGq0D5oFHdnfk7SAKi-5" target="3xLGq0D5oFHdnfk7SAKi-7">
          <mxGeometry relative="1" as="geometry" />
        </mxCell>
        <mxCell id="3xLGq0D5oFHdnfk7SAKi-22" value="" style="edgeStyle=orthogonalEdgeStyle;shape=connector;rounded=0;orthogonalLoop=1;jettySize=auto;html=1;labelBackgroundColor=default;strokeColor=#FFFFFF;fontFamily=Helvetica;fontSize=12;fontColor=default;endArrow=classic;" edge="1" parent="1" source="3xLGq0D5oFHdnfk7SAKi-5" target="3xLGq0D5oFHdnfk7SAKi-21">
          <mxGeometry relative="1" as="geometry" />
        </mxCell>
        <mxCell id="3xLGq0D5oFHdnfk7SAKi-5" value="for(int i = 0; i &amp;lt; array.Lenght; i ++)" style="shape=hexagon;perimeter=hexagonPerimeter2;whiteSpace=wrap;html=1;fixedSize=1;rounded=1;strokeColor=#FFFFFF;fontFamily=Helvetica;fontSize=12;fontColor=#FFFFFF;fillColor=#000000;fontStyle=0" vertex="1" parent="1">
          <mxGeometry x="309" y="310" width="210" height="110" as="geometry" />
        </mxCell>
        <mxCell id="3xLGq0D5oFHdnfk7SAKi-18" style="edgeStyle=orthogonalEdgeStyle;shape=connector;rounded=0;orthogonalLoop=1;jettySize=auto;html=1;exitX=0;exitY=0.5;exitDx=0;exitDy=0;labelBackgroundColor=default;strokeColor=#FFFFFF;fontFamily=Helvetica;fontSize=12;fontColor=default;endArrow=classic;" edge="1" parent="1" source="3xLGq0D5oFHdnfk7SAKi-7">
          <mxGeometry relative="1" as="geometry">
            <mxPoint x="270" y="370" as="targetPoint" />
          </mxGeometry>
        </mxCell>
        <mxCell id="3xLGq0D5oFHdnfk7SAKi-19" style="edgeStyle=orthogonalEdgeStyle;shape=connector;rounded=0;orthogonalLoop=1;jettySize=auto;html=1;exitX=0.5;exitY=1;exitDx=0;exitDy=0;entryX=0.5;entryY=1;entryDx=0;entryDy=0;labelBackgroundColor=default;strokeColor=#FFFFFF;fontFamily=Helvetica;fontSize=12;fontColor=default;endArrow=classic;" edge="1" parent="1" source="3xLGq0D5oFHdnfk7SAKi-7" target="3xLGq0D5oFHdnfk7SAKi-12">
          <mxGeometry relative="1" as="geometry" />
        </mxCell>
        <mxCell id="3xLGq0D5oFHdnfk7SAKi-7" value="if&lt;font color=&quot;#ffffff&quot;&gt;if (array[i].Lenght &amp;gt;= 3)&lt;/font&gt;" style="rhombus;whiteSpace=wrap;html=1;rounded=1;strokeColor=#FFFFFF;fontFamily=Helvetica;fontSize=12;fontColor=default;fillColor=#000000;" vertex="1" parent="1">
          <mxGeometry x="316" y="470" width="196" height="80" as="geometry" />
        </mxCell>
        <mxCell id="3xLGq0D5oFHdnfk7SAKi-11" value="No&lt;font color=&quot;#ffffff&quot;&gt;No&lt;/font&gt;" style="text;html=1;strokeColor=none;fillColor=none;align=center;verticalAlign=middle;whiteSpace=wrap;rounded=0;fontSize=12;fontFamily=Helvetica;fontColor=default;" vertex="1" parent="1">
          <mxGeometry x="270" y="480" width="60" height="30" as="geometry" />
        </mxCell>
        <mxCell id="3xLGq0D5oFHdnfk7SAKi-14" value="" style="edgeStyle=orthogonalEdgeStyle;shape=connector;rounded=0;orthogonalLoop=1;jettySize=auto;html=1;labelBackgroundColor=default;strokeColor=#FFFFFF;fontFamily=Helvetica;fontSize=12;fontColor=default;endArrow=classic;" edge="1" parent="1" source="3xLGq0D5oFHdnfk7SAKi-12" target="3xLGq0D5oFHdnfk7SAKi-5">
          <mxGeometry relative="1" as="geometry" />
        </mxCell>
        <mxCell id="3xLGq0D5oFHdnfk7SAKi-12" value="array2[count] = array[i]&lt;br&gt;count++" style="rounded=0;whiteSpace=wrap;html=1;strokeColor=#FFFFFF;fontFamily=Helvetica;fontSize=12;fontColor=#FFFFFF;fillColor=#000000;" vertex="1" parent="1">
          <mxGeometry x="70" y="335" width="150" height="60" as="geometry" />
        </mxCell>
        <mxCell id="3xLGq0D5oFHdnfk7SAKi-15" value="Yes" style="text;html=1;strokeColor=none;fillColor=none;align=center;verticalAlign=middle;whiteSpace=wrap;rounded=0;fontSize=12;fontFamily=Helvetica;fontColor=#FFFFFF;" vertex="1" parent="1">
          <mxGeometry x="330" y="540" width="60" height="30" as="geometry" />
        </mxCell>
        <mxCell id="3xLGq0D5oFHdnfk7SAKi-21" value="Конец" style="shape=document;whiteSpace=wrap;html=1;boundedLbl=1;rounded=1;strokeColor=#FFFFFF;fontFamily=Helvetica;fontSize=12;fontColor=#FFFFFF;fillColor=#000000;" vertex="1" parent="1">
          <mxGeometry x="590" y="325" width="120" height="80" as="geometry" />
        </mxCell>
        <mxCell id="3xLGq0D5oFHdnfk7SAKi-25" style="edgeStyle=orthogonalEdgeStyle;shape=connector;rounded=0;orthogonalLoop=1;jettySize=auto;html=1;exitX=0.5;exitY=1;exitDx=0;exitDy=0;entryX=0.5;entryY=0;entryDx=0;entryDy=0;labelBackgroundColor=default;strokeColor=#FFFFFF;fontFamily=Helvetica;fontSize=12;fontColor=default;endArrow=classic;" edge="1" parent="1" source="3xLGq0D5oFHdnfk7SAKi-23" target="3xLGq0D5oFHdnfk7SAKi-1">
          <mxGeometry relative="1" as="geometry" />
        </mxCell>
        <mxCell id="3xLGq0D5oFHdnfk7SAKi-23" value="Начало" style="rounded=1;whiteSpace=wrap;html=1;strokeColor=#FFFFFF;fontFamily=Helvetica;fontSize=12;fontColor=#FFFFFF;fillColor=#000000;" vertex="1" parent="1">
          <mxGeometry x="354" y="50" width="120" height="60" as="geometry" />
        </mxCell>
      </root>
    </mxGraphModel>
  </diagram>
</mxfile>
